# xmcd
#
# Track frame offsets:
#  150
#  17345
#  41945
#  56767
#  78587
#  98250
#  111700
#  124742
#  136240
#  149095
#  164292
#  176820
#  188172
#  201562
#  216010
#  234207
#
# Disc length: 3354 seconds
#
# Revision: 2
# Processed by: cddbd v1.5.1PL0 Copyright (c) Steve Scherf et al.
# Submitted via: Collectorz.com Music Collector 6.9
#
DISCID=ea0d1810
DTITLE=Various Artist - This Is Americana, Volume One
DYEAR=2002
DGENRE=
TTITLE0=Gourds - My Name Is Jorge
TTITLE1=Railroad Earth - Mighty River
TTITLE2=Scott Miller and the Commonwealth - I Won't Go with You
TTITLE3=Rodney Crowell - The Rock of My Soul
TTITLE4=James McMurtry - Out Here in the Middle
TTITLE5=Robin and Lucinda Williams - After the Fire Is Gone
TTITLE6=Doc Watson and Frosty Morn - Working Man Blues
TTITLE7=Kev Russell's Junker  - (Somebody Bring Me a Flower) I'm a Robot
TTITLE8=John Cowan - Two Quarts Low
TTITLE9=Jerry Douglas - Patrick Meets the Brickbats
TTITLE10=Baucom, Bibey and Blueridge - It's All My Fault
TTITLE11=Doyle Lawson and Quicksilver - Poor Boy Working Blues
TTITLE12=Dudley Connell and Don Rigsby - Another Saturday Night
TTITLE13=Hot Rize - Colleen Malone
TTITLE14=Sean Watkins - Let It Fall
TTITLE15=Maura O'Connell - Poor Man's House
EXTD=
EXTT0=
EXTT1=
EXTT2=
EXTT3=
EXTT4=
EXTT5=
EXTT6=
EXTT7=
EXTT8=
EXTT9=
EXTT10=
EXTT11=
EXTT12=
EXTT13=
EXTT14=
EXTT15=
PLAYORDER=
